<svg width="43" height="42" viewBox="0 0 43 42" fill="none" xmlns="http://www.w3.org/2000/svg">
<g id="fluent:arrow-growth-20-filled">
<path id="Vector" d="M29.9 5.77495C29.9 5.35724 30.0659 4.95663 30.3613 4.66126C30.6567 4.36589 31.0573 4.19995 31.475 4.19995H36.725C37.1427 4.19995 37.5433 4.36589 37.8387 4.66126C38.1341 4.95663 38.3 5.35724 38.3 5.77495V11.025C38.3 11.4427 38.1341 11.8433 37.8387 12.1386C37.5433 12.434 37.1427 12.6 36.725 12.6C36.3073 12.6 35.9067 12.434 35.6113 12.1386C35.3159 11.8433 35.15 11.4427 35.15 11.025V9.57595L25.763 18.9629C25.4677 19.2579 25.0674 19.4236 24.65 19.4236C24.2326 19.4236 23.8323 19.2579 23.537 18.9629L18.35 13.776L9.488 22.6379C9.34381 22.7927 9.16993 22.9168 8.97673 23.0029C8.78353 23.089 8.57497 23.1353 8.3635 23.139C8.15202 23.1427 7.94196 23.1038 7.74584 23.0246C7.54973 22.9454 7.37158 22.8275 7.22202 22.6779C7.07246 22.5284 6.95456 22.3502 6.87534 22.1541C6.79613 21.958 6.75723 21.7479 6.76096 21.5365C6.76469 21.325 6.81098 21.1164 6.89706 20.9232C6.98314 20.73 7.10726 20.5561 7.262 20.412L17.237 10.437C17.5323 10.142 17.9326 9.97634 18.35 9.97634C18.7674 9.97634 19.1677 10.142 19.463 10.437L24.65 15.624L32.924 7.34995H31.475C31.0573 7.34995 30.6567 7.18401 30.3613 6.88864C30.0659 6.59327 29.9 6.19267 29.9 5.77495ZM8.375 29.4C8.79272 29.4 9.19332 29.5659 9.48869 29.8613C9.78406 30.1566 9.95 30.5572 9.95 30.9749V36.2249C9.95 36.6427 9.78406 37.0433 9.48869 37.3386C9.19332 37.634 8.79272 37.7999 8.375 37.7999C7.95728 37.7999 7.55668 37.634 7.26131 37.3386C6.96594 37.0433 6.8 36.6427 6.8 36.2249V30.9749C6.8 30.5572 6.96594 30.1566 7.26131 29.8613C7.55668 29.5659 7.95728 29.4 8.375 29.4ZM18.35 24.675C18.35 24.2572 18.1841 23.8566 17.8887 23.5613C17.5933 23.2659 17.1927 23.1 16.775 23.1C16.3573 23.1 15.9567 23.2659 15.6613 23.5613C15.3659 23.8566 15.2 24.2572 15.2 24.675V36.2249C15.2 36.6427 15.3659 37.0433 15.6613 37.3386C15.9567 37.634 16.3573 37.7999 16.775 37.7999C17.1927 37.7999 17.5933 37.634 17.8887 37.3386C18.1841 37.0433 18.35 36.6427 18.35 36.2249V24.675ZM25.175 27.3C25.5927 27.3 25.9933 27.4659 26.2887 27.7613C26.5841 28.0566 26.75 28.4572 26.75 28.875V36.2249C26.75 36.6427 26.5841 37.0433 26.2887 37.3386C25.9933 37.634 25.5927 37.7999 25.175 37.7999C24.7573 37.7999 24.3567 37.634 24.0613 37.3386C23.7659 37.0433 23.6 36.6427 23.6 36.2249V28.875C23.6 28.4572 23.7659 28.0566 24.0613 27.7613C24.3567 27.4659 24.7573 27.3 25.175 27.3ZM35.15 20.475C35.15 20.0572 34.9841 19.6566 34.6887 19.3613C34.3933 19.0659 33.9927 18.9 33.575 18.9C33.1573 18.9 32.7567 19.0659 32.4613 19.3613C32.1659 19.6566 32 20.0572 32 20.475V36.2249C32 36.6427 32.1659 37.0433 32.4613 37.3386C32.7567 37.634 33.1573 37.7999 33.575 37.7999C33.9927 37.7999 34.3933 37.634 34.6887 37.3386C34.9841 37.0433 35.15 36.6427 35.15 36.2249V20.475Z" fill="black"/>
</g>
</svg>
