<svg width="43" height="42" viewBox="0 0 43 42" fill="none" xmlns="http://www.w3.org/2000/svg">
<g id="mdi:file-document-check-outline">
<path id="Vector" d="M41.8713 29.75L33.0689 38.5L26.9072 32.375L29.5479 29.75L33.0689 33.25L39.2305 27.125L41.8713 29.75ZM11.0629 3.5C10.1291 3.5 9.23349 3.86875 8.57318 4.52513C7.91287 5.1815 7.54192 6.07174 7.54192 7V35C7.54192 36.9425 9.10874 38.5 11.0629 38.5H24.8122C24.1784 37.415 23.7383 36.225 23.5271 35H11.0629V7H23.3862V15.75H32.1886V22.89C32.7696 22.8025 33.3681 22.75 33.9491 22.75C34.5477 22.75 35.1286 22.8025 35.7096 22.89V14L25.1467 3.5M14.5838 21V24.5H28.6677V21M14.5838 28V31.5H23.3862V28H14.5838Z" fill="black"/>
</g>
</svg>
