<svg width="43" height="42" viewBox="0 0 43 42" fill="none" xmlns="http://www.w3.org/2000/svg">
<g id="mdi:responsive" clip-path="url(#clip0_36_108)">
<path id="Vector" d="M7.54192 10.5V28H16.3443V21C16.3443 20.0717 16.7153 19.1815 17.3756 18.5251C18.0359 17.8687 18.9315 17.5 19.8653 17.5H28.6677C29.6015 17.5 30.4971 17.8687 31.1574 18.5251C31.8177 19.1815 32.1886 20.0717 32.1886 21V28H35.7096V10.5H7.54192ZM0.5 35V31.5H7.54192C6.6081 31.5 5.71253 31.1313 5.05222 30.4749C4.39192 29.8185 4.02096 28.9283 4.02096 28V10.5C4.02096 9.57174 4.39192 8.6815 5.05222 8.02513C5.71253 7.36875 6.6081 7 7.54192 7H35.7096C36.6434 7 37.539 7.36875 38.1993 8.02513C38.8596 8.6815 39.2305 9.57174 39.2305 10.5V28C39.2305 28.9283 38.8596 29.8185 38.1993 30.4749C37.539 31.1313 36.6434 31.5 35.7096 31.5H42.7515V35H32.1886C32.1886 35.9283 31.8177 36.8185 31.1574 37.4749C30.4971 38.1313 29.6015 38.5 28.6677 38.5H19.8653C18.9315 38.5 18.0359 38.1313 17.3756 37.4749C16.7153 36.8185 16.3443 35.9283 16.3443 35H0.5ZM20.7455 35C20.5121 35 20.2882 35.0922 20.1231 35.2563C19.958 35.4204 19.8653 35.6429 19.8653 35.875C19.8653 36.1071 19.958 36.3296 20.1231 36.4937C20.2882 36.6578 20.5121 36.75 20.7455 36.75C20.979 36.75 21.2029 36.6578 21.3679 36.4937C21.533 36.3296 21.6257 36.1071 21.6257 35.875C21.6257 35.6429 21.533 35.4204 21.3679 35.2563C21.2029 35.0922 20.979 35 20.7455 35ZM27.7874 35C27.554 35 27.3301 35.0922 27.165 35.2563C26.9999 35.4204 26.9072 35.6429 26.9072 35.875C26.9072 36.1071 26.9999 36.3296 27.165 36.4937C27.3301 36.6578 27.554 36.75 27.7874 36.75C28.0209 36.75 28.2448 36.6578 28.4098 36.4937C28.5749 36.3296 28.6677 36.1071 28.6677 35.875C28.6677 35.6429 28.5749 35.4204 28.4098 35.2563C28.2448 35.0922 28.0209 35 27.7874 35ZM23.3862 35V36.75H25.1467V35H23.3862ZM19.8653 21V33.25H28.6677V21H19.8653Z" fill="black"/>
</g>
<defs>
<clipPath id="clip0_36_108">
<rect width="42.2515" height="42" fill="white" transform="translate(0.5)"/>
</clipPath>
</defs>
</svg>
