<svg width="89" height="25" viewBox="0 0 89 25" fill="none" xmlns="http://www.w3.org/2000/svg">
<path d="M0.202216 24.4587V1.18601H5.12267V20.4019H15.0999V24.4587H0.202216ZM38.8386 12.8224C38.8386 15.3603 38.3575 17.5193 37.3954 19.2996C36.4409 21.08 35.1378 22.4398 33.4863 23.3792C31.8424 24.311 29.9939 24.7769 27.9409 24.7769C25.8727 24.7769 24.0166 24.3072 22.3727 23.3678C20.7287 22.4284 19.4295 21.0686 18.4749 19.2883C17.5204 17.508 17.0431 15.3527 17.0431 12.8224C17.0431 10.2845 17.5204 8.12541 18.4749 6.3451C19.4295 4.5648 20.7287 3.20874 22.3727 2.27692C24.0166 1.33753 25.8727 0.86783 27.9409 0.86783C29.9939 0.86783 31.8424 1.33753 33.4863 2.27692C35.1378 3.20874 36.4409 4.5648 37.3954 6.3451C38.3575 8.12541 38.8386 10.2845 38.8386 12.8224ZM33.8499 12.8224C33.8499 11.1784 33.6037 9.79207 33.1113 8.66329C32.6265 7.5345 31.9409 6.67844 31.0545 6.0951C30.1681 5.51177 29.1302 5.2201 27.9409 5.2201C26.7515 5.2201 25.7136 5.51177 24.8272 6.0951C23.9409 6.67844 23.2515 7.5345 22.759 8.66329C22.2742 9.79207 22.0318 11.1784 22.0318 12.8224C22.0318 14.4663 22.2742 15.8527 22.759 16.9815C23.2515 18.1103 23.9409 18.9663 24.8272 19.5496C25.7136 20.133 26.7515 20.4246 27.9409 20.4246C29.1302 20.4246 30.1681 20.133 31.0545 19.5496C31.9409 18.9663 32.6265 18.1103 33.1113 16.9815C33.6037 15.8527 33.8499 14.4663 33.8499 12.8224ZM57.9153 8.70874C57.7562 8.15571 57.5327 7.66707 57.2448 7.24283C56.957 6.81101 56.6047 6.44738 56.188 6.15192C55.7789 5.84889 55.3092 5.61783 54.7789 5.45874C54.2562 5.29965 53.6766 5.2201 53.0403 5.2201C51.8509 5.2201 50.8054 5.51556 49.9039 6.10647C49.01 6.69738 48.313 7.55722 47.813 8.68601C47.313 9.80722 47.063 11.1784 47.063 12.7996C47.063 14.4209 47.3092 15.7996 47.8016 16.936C48.2941 18.0724 48.991 18.9398 49.8926 19.5383C50.7941 20.1292 51.8585 20.4246 53.0857 20.4246C54.1994 20.4246 55.1501 20.2277 55.938 19.8337C56.7335 19.4322 57.3395 18.8678 57.7562 18.1406C58.1804 17.4133 58.3926 16.5534 58.3926 15.561L59.3926 15.7087H53.3926V12.0042H63.1312V14.936C63.1312 16.9815 62.6994 18.739 61.8357 20.2087C60.9721 21.6709 59.7827 22.7996 58.2676 23.5951C56.7524 24.383 55.0176 24.7769 53.063 24.7769C50.8812 24.7769 48.9645 24.2959 47.313 23.3337C45.6615 22.364 44.3736 20.989 43.4494 19.2087C42.5327 17.4209 42.0744 15.2996 42.0744 12.8451C42.0744 10.9587 42.3471 9.27692 42.8926 7.79965C43.4456 6.3148 44.2183 5.05722 45.2107 4.02692C46.2032 2.99662 47.3585 2.21253 48.6766 1.67465C49.9948 1.13677 51.4229 0.86783 52.9607 0.86783C54.2789 0.86783 55.5062 1.06101 56.6426 1.44738C57.7789 1.82616 58.7865 2.36404 59.6653 3.06101C60.5516 3.75798 61.2751 4.58753 61.8357 5.54965C62.3963 6.50419 62.7562 7.55722 62.9153 8.70874H57.9153ZM88.2136 12.8224C88.2136 15.3603 87.7325 17.5193 86.7704 19.2996C85.8159 21.08 84.5128 22.4398 82.8613 23.3792C81.2174 24.311 79.3689 24.7769 77.3159 24.7769C75.2477 24.7769 73.3916 24.3072 71.7477 23.3678C70.1037 22.4284 68.8045 21.0686 67.8499 19.2883C66.8954 17.508 66.4181 15.3527 66.4181 12.8224C66.4181 10.2845 66.8954 8.12541 67.8499 6.3451C68.8045 4.5648 70.1037 3.20874 71.7477 2.27692C73.3916 1.33753 75.2477 0.86783 77.3159 0.86783C79.3689 0.86783 81.2174 1.33753 82.8613 2.27692C84.5128 3.20874 85.8159 4.5648 86.7704 6.3451C87.7325 8.12541 88.2136 10.2845 88.2136 12.8224ZM83.2249 12.8224C83.2249 11.1784 82.9787 9.79207 82.4863 8.66329C82.0015 7.5345 81.3159 6.67844 80.4295 6.0951C79.5431 5.51177 78.5052 5.2201 77.3159 5.2201C76.1265 5.2201 75.0886 5.51177 74.2022 6.0951C73.3159 6.67844 72.6265 7.5345 72.134 8.66329C71.6492 9.79207 71.4068 11.1784 71.4068 12.8224C71.4068 14.4663 71.6492 15.8527 72.134 16.9815C72.6265 18.1103 73.3159 18.9663 74.2022 19.5496C75.0886 20.133 76.1265 20.4246 77.3159 20.4246C78.5052 20.4246 79.5431 20.133 80.4295 19.5496C81.3159 18.9663 82.0015 18.1103 82.4863 16.9815C82.9787 15.8527 83.2249 14.4663 83.2249 12.8224Z" fill="white"/>
</svg>
