<svg width="43" height="42" viewBox="0 0 43 42" fill="none" xmlns="http://www.w3.org/2000/svg">
<g id="arcticons:okta-verify">
<path id="Vector" d="M37.2614 10.7249C39.9364 14.819 40.9144 19.7929 39.9887 24.595C39.063 29.3971 36.3062 33.651 32.301 36.4574C28.2958 39.2638 23.3563 40.4027 18.5267 39.6333C13.6971 38.8639 9.35597 36.2465 6.42111 32.3345C3.48624 28.4225 2.18768 23.5226 2.79997 18.6705C3.41225 13.8185 5.88738 9.39473 9.70209 6.33448C13.5168 3.27423 18.3721 1.81737 23.2414 2.2719C28.1107 2.72643 32.6125 5.05673 35.7949 8.77013" stroke="black" stroke-linecap="round" stroke-linejoin="round"/>
<path id="Vector_2" d="M30.8616 17.3031C31.8031 19.6804 31.8053 22.3269 30.8677 24.7058C29.9302 27.0847 28.1231 29.0181 25.8128 30.114C23.5026 31.2098 20.862 31.3861 18.4266 30.6072C15.9911 29.8282 13.943 28.1523 12.6975 25.9191C11.4519 23.686 11.1022 21.0628 11.7192 18.5813C12.3362 16.0999 13.8738 13.9459 16.0201 12.5562C18.1664 11.1664 20.7609 10.6448 23.2776 11.0972C25.7943 11.5495 28.0448 12.942 29.5728 14.9922" stroke="black" stroke-linecap="round" stroke-linejoin="round"/>
<path id="Vector_3" d="M35.794 8.771L21.5 23.065L17.37 18.935" stroke="black" stroke-linecap="round" stroke-linejoin="round"/>
</g>
</svg>
